# xmcd
#
# Track frame offsets:
#	150
#	14750
#	28741
#	49261
#	66414
#	78508
#	90643
#	105384
#	120526
#	135617
#	152527
#	173319
#	187569
#	200994
#
# Disc length: 2910 seconds
#
# Revision: 0
# Processed by: cddbd v1.5.2PL0 Copyright (c) Steve Scherf et al.
# Submitted via: EasyCDDAExtractor 2010.4.0.0
#
DISCID=b20b5c0e
DTITLE=Milionário and José Rico - Nossa História
DYEAR=2010
DGENRE=country
TTITLE0=Estrada da Vida - ao vivo
TTITLE1=Minha Prece
TTITLE2=Sonhei com Você - ao vivo
TTITLE3=Tribunal do Amor - ao vivo
TTITLE4=Vinte Anos (Veinte Años)
TTITLE5=Coração de Pedra
TTITLE6=Amor Dividido
TTITLE7=Corpo e Alma - ao vivo
TTITLE8=Escravo do Amor
TTITLE9=Homem Triste
TTITLE10=Levando a Vida - ao vivo
TTITLE11=Faz Um Ano
TTITLE12=Minha Verdade
TTITLE13=Orgulhosa e Bonita (Orgullosa Y Bonita)
EXTD=
EXTT0=
EXTT1=
EXTT2=
EXTT3=
EXTT4=
EXTT5=
EXTT6=
EXTT7=
EXTT8=
EXTT9=
EXTT10=
EXTT11=
EXTT12=
EXTT13=
PLAYORDER=
